<?xml version="1.0" encoding="UTF-8"?><svg id="Camada_1" xmlns="http://www.w3.org/2000/svg" viewBox="0 0 461.57 425.44"><defs><style>.cls-1{fill:#071b8e;stroke-width:0px;}</style></defs><path class="cls-1" d="M237.55,156.57c0,3.79-3.09,6.88-6.88,6.88s-6.88-3.09-6.88-6.88v-68.67c-3.8.38-7.57,1.07-11.22,2.07v66.61c0,10.02,8.15,18.17,18.17,18.17s18.17-8.15,18.17-18.17v-66.61c-3.69-1-7.51-1.7-11.35-2.08v68.69Z"/><path class="cls-1" d="M230.74,188.5c-17.61,0-31.93-14.32-31.93-31.93v-61.21c-4.03,2.11-7.87,4.62-11.42,7.49v53.65c0,23.86,19.41,43.28,43.28,43.28s43.28-19.41,43.28-43.28v-53.76c-3.51-2.82-7.3-5.31-11.29-7.39v61.21c0,17.61-14.32,31.93-31.93,31.93Z"/><path class="cls-1" d="M230.67,213.55c-31.45,0-57.04-25.59-57.04-57.04v-38.71c-7.81,11.46-11.92,24.82-11.92,38.78,0,1.99.09,4.03.27,6.09.2,2.3.52,4.62.95,6.88.43,2.25.98,4.51,1.63,6.7.67,2.25,1.46,4.49,2.35,6.65,2.04,4.94,4.66,9.64,7.79,13.98.92,1.28,1.88,2.52,2.84,3.68,12,14.5,29.62,23.56,48.32,24.86,1.65.12,3.29.17,4.87.17,1.01,0,2.05-.02,3.17-.08,19.06-.86,37.1-9.73,49.48-24.32,1.06-1.25,2.08-2.55,3.05-3.86,3.24-4.42,5.94-9.19,8.03-14.2.89-2.13,1.68-4.34,2.35-6.56.65-2.14,1.19-4.34,1.63-6.52.42-2.1.74-4.23.95-6.33.24-2.37.37-4.77.37-7.15,0-14.04-4.16-27.46-12.05-38.97v38.9c0,1.07-.03,2.19-.1,3.34-1.75,30.11-26.76,53.7-56.94,53.7Z"/><path class="cls-1" d="M93.08,300.78c-3.34-3.41-5.19-8.16-5.19-13.43v-33.75h9.79v33.9c0,5.56,3.34,8.9,8.83,8.9s8.9-3.34,8.9-8.9v-33.9h9.79v33.75c0,5.27-1.85,10.02-5.19,13.43-3.41,3.34-8.16,5.19-13.5,5.19s-10.02-1.85-13.43-5.19Z"/><path class="cls-1" d="M169.53,257.6c3.34,3.34,5.19,8.09,5.19,13.35v34.13h-9.79v-34.35c0-5.49-3.34-8.83-8.9-8.83s-8.83,3.34-8.83,8.83v34.35h-9.79v-34.13c0-5.27,1.85-10.02,5.19-13.35,3.41-3.41,8.16-5.27,13.43-5.27s10.09,1.85,13.5,5.27Z"/><path class="cls-1" d="M224.61,305.08h-9.79v-14.39h-17.73v14.39h-9.79v-34.13c0-5.27,1.85-10.02,5.19-13.35,3.41-3.41,8.16-5.27,13.43-5.27s10.09,1.85,13.5,5.27,5.19,8.09,5.19,13.35v34.13ZM214.82,270.73c0-5.49-3.34-8.83-8.9-8.83s-8.83,3.34-8.83,8.83v10.53h17.73v-10.53Z"/><path class="cls-1" d="M291.43,300.78c-3.34-3.41-5.19-8.16-5.19-13.43v-33.75h9.79v33.9c0,5.56,3.34,8.9,8.83,8.9s8.9-3.34,8.9-8.9v-33.9h9.79v33.75c0,5.27-1.85,10.02-5.19,13.43-3.41,3.34-8.16,5.19-13.5,5.19s-10.02-1.85-13.43-5.19Z"/><path class="cls-1" d="M273.19,269.17h-9.03c0-4.45-3.42-7.79-9.17-7.79-4.79,0-9.24,2-9.24,5.93,0,3.56,3.22,4.82,10.47,6.45,11.29,2.45,18.41,5.49,18.41,16.02,0,9.94-7.66,16.17-19.64,16.17-9.31,0-19.43-5.56-19.43-17.95h9.03c0,6.08,5.61,8.98,10.4,8.98,5.2,0,10.61-2,10.61-6.9,0-3.26-2.46-5.27-11.22-7.12-8.76-1.85-17.65-4.67-17.65-15.73,0-8.83,7.18-14.99,18.27-14.99,12.52,0,18.2,8.75,18.2,16.91Z"/><path class="cls-1" d="M372.15,269.17h-9.03c0-4.45-3.42-7.79-9.17-7.79-4.79,0-9.24,2-9.24,5.93,0,3.56,3.22,4.82,10.47,6.45,11.29,2.45,18.41,5.49,18.41,16.02,0,9.94-7.66,16.17-19.64,16.17-9.31,0-19.43-5.56-19.43-17.95h9.03c0,6.08,5.61,8.98,10.4,8.98,5.2,0,10.61-2,10.61-6.9,0-3.26-2.46-5.27-11.22-7.12-8.76-1.85-17.65-4.67-17.65-15.73,0-8.83,7.18-14.99,18.27-14.99,12.52,0,18.2,8.75,18.2,16.91Z"/><path class="cls-1" d="M99.58,323.43v13.96h-1.92v-1.98c-.94,1.42-2.46,2.13-4.55,2.13-1.66,0-2.96-.51-3.9-1.52s-1.41-2.45-1.41-4.33v-8.28h2v8.22c0,1.34.33,2.37,1,3.07s1.58,1.06,2.73,1.06c1.25,0,2.24-.37,2.97-1.12.73-.74,1.1-1.85,1.1-3.31v-7.92h1.97Z"/><path class="cls-1" d="M112.34,327.89c.79.78,1.19,1.92,1.19,3.42v6.08h-1.92v-5.86c0-1.02-.25-1.8-.74-2.31-.49-.52-1.2-.78-2.11-.78-1.04,0-1.86.3-2.45.91-.6.6-.9,1.47-.9,2.6v5.45h-1.92v-10.57h1.83v1.6c.39-.55.91-.96,1.57-1.26s1.41-.44,2.24-.44c1.34,0,2.41.39,3.2,1.17Z"/><path class="cls-1" d="M117.1,324.43c-.25-.24-.37-.53-.37-.88s.12-.64.37-.89.56-.37.93-.37.68.12.93.35c.25.23.37.52.37.87s-.12.66-.37.91-.56.37-.93.37-.68-.12-.93-.36ZM117.08,326.83h1.92v10.57h-1.92v-10.57Z"/><path class="cls-1" d="M132,326.83l-4.63,10.57h-1.96l-4.63-10.57h2l3.63,8.48,3.71-8.48h1.88Z"/><path class="cls-1" d="M141.31,334.57l1.04,1.24c-.46.56-1.05.98-1.76,1.28-.71.29-1.51.44-2.38.44-1.12,0-2.11-.23-2.97-.69-.86-.46-1.53-1.1-2-1.93-.47-.82-.71-1.76-.71-2.79s.23-1.95.69-2.77c.46-.82,1.09-1.47,1.89-1.92.8-.46,1.71-.69,2.72-.69.96,0,1.83.22,2.61.65.79.43,1.41,1.04,1.88,1.83.46.78.7,1.69.72,2.71l-8.4,1.64c.27.73.71,1.3,1.35,1.7s1.39.6,2.28.6c1.26,0,2.28-.43,3.05-1.28ZM136.04,328.8c-.53.31-.93.73-1.23,1.29-.29.55-.44,1.19-.44,1.92v.2l6.76-1.28c-.17-.77-.56-1.4-1.16-1.88-.6-.48-1.32-.72-2.16-.72-.67,0-1.26.15-1.79.46Z"/><path class="cls-1" d="M149.01,327.2c.65-.32,1.44-.48,2.37-.48v1.86c-.11-.01-.25-.02-.44-.02-1.04,0-1.85.31-2.44.93-.59.62-.89,1.5-.89,2.64v5.27h-1.92v-10.57h1.83v1.77c.33-.61.82-1.08,1.48-1.4Z"/><path class="cls-1" d="M154.36,337.17c-.8-.23-1.42-.53-1.88-.89l.8-1.52c.47.33,1.03.6,1.7.8.66.2,1.34.3,2.01.3,1.68,0,2.51-.48,2.51-1.44,0-.32-.11-.57-.34-.76-.23-.19-.51-.32-.85-.41s-.82-.18-1.45-.29c-.85-.13-1.55-.29-2.08-.46-.54-.17-1-.47-1.39-.88-.39-.41-.58-.99-.58-1.74,0-.96.4-1.73,1.2-2.3.8-.58,1.87-.87,3.21-.87.7,0,1.41.09,2.11.26.71.17,1.28.41,1.74.7l-.82,1.52c-.87-.56-1.88-.84-3.05-.84-.81,0-1.43.13-1.85.4-.43.27-.64.62-.64,1.06,0,.35.12.62.36.82.24.2.54.35.89.44.35.09.85.2,1.49.32.85.15,1.54.3,2.06.47.53.17.97.45,1.35.85.37.4.56.96.56,1.68,0,.96-.41,1.72-1.23,2.28-.82.57-1.93.85-3.34.85-.87,0-1.7-.12-2.49-.35Z"/><path class="cls-1" d="M163.84,324.43c-.25-.24-.37-.53-.37-.88s.12-.64.37-.89.56-.37.93-.37.68.12.93.35c.25.23.37.52.37.87s-.12.66-.37.91-.56.37-.93.37-.68-.12-.93-.36ZM163.81,326.83h1.92v10.57h-1.92v-10.57Z"/><path class="cls-1" d="M179.35,322.6v14.8h-1.83v-1.68c-.43.59-.96,1.03-1.62,1.34-.65.31-1.37.46-2.15.46-1.02,0-1.94-.23-2.75-.68-.81-.45-1.45-1.09-1.9-1.9-.46-.82-.69-1.76-.69-2.82s.23-2,.69-2.81c.46-.81,1.09-1.44,1.9-1.9.81-.45,1.73-.68,2.75-.68.76,0,1.46.14,2.09.43s1.17.71,1.6,1.27v-5.82h1.92ZM175.72,335.37c.54-.31.97-.75,1.28-1.32.31-.56.46-1.21.46-1.94s-.15-1.38-.46-1.94c-.31-.57-.73-1-1.28-1.31-.55-.31-1.15-.46-1.82-.46s-1.29.15-1.83.46c-.54.31-.96.74-1.28,1.31-.31.56-.47,1.21-.47,1.94s.16,1.38.47,1.94c.31.57.74,1,1.28,1.32.54.31,1.15.47,1.83.47s1.27-.16,1.82-.47Z"/><path class="cls-1" d="M192.96,326.83v10.57h-1.83v-1.68c-.43.59-.96,1.03-1.62,1.34-.65.31-1.37.46-2.15.46-1.02,0-1.94-.23-2.75-.68-.81-.45-1.45-1.09-1.9-1.9-.46-.82-.69-1.76-.69-2.82s.23-2,.69-2.81c.46-.81,1.09-1.44,1.9-1.9.81-.45,1.73-.68,2.75-.68.76,0,1.46.14,2.09.43s1.17.71,1.6,1.27v-1.6h1.92ZM189.33,335.37c.54-.31.97-.75,1.28-1.32.31-.56.46-1.21.46-1.94s-.15-1.38-.46-1.94c-.31-.57-.73-1-1.28-1.31-.55-.31-1.15-.46-1.82-.46s-1.29.15-1.83.46c-.54.31-.96.74-1.28,1.31-.31.56-.47,1.21-.47,1.94s.16,1.38.47,1.94c.31.57.74,1,1.28,1.32.54.31,1.15.47,1.83.47s1.27-.16,1.82-.47Z"/><path class="cls-1" d="M206.56,322.6v14.8h-1.83v-1.68c-.43.59-.96,1.03-1.62,1.34-.65.31-1.37.46-2.15.46-1.02,0-1.94-.23-2.75-.68-.81-.45-1.45-1.09-1.9-1.9-.46-.82-.69-1.76-.69-2.82s.23-2,.69-2.81c.46-.81,1.09-1.44,1.9-1.9.81-.45,1.73-.68,2.75-.68.76,0,1.46.14,2.09.43s1.17.71,1.6,1.27v-5.82h1.92ZM202.93,335.37c.54-.31.97-.75,1.28-1.32.31-.56.46-1.21.46-1.94s-.15-1.38-.46-1.94c-.31-.57-.73-1-1.28-1.31-.55-.31-1.15-.46-1.82-.46s-1.29.15-1.83.46c-.54.31-.96.74-1.28,1.31-.31.56-.47,1.21-.47,1.94s.16,1.38.47,1.94c.31.57.74,1,1.28,1.32.54.31,1.15.47,1.83.47s1.27-.16,1.82-.47Z"/><path class="cls-1" d="M218.01,334.57l1.04,1.24c-.46.56-1.05.98-1.76,1.28-.71.29-1.51.44-2.38.44-1.12,0-2.11-.23-2.97-.69-.86-.46-1.53-1.1-2-1.93-.47-.82-.71-1.76-.71-2.79s.23-1.95.69-2.77c.46-.82,1.09-1.47,1.89-1.92.8-.46,1.71-.69,2.72-.69.96,0,1.83.22,2.61.65.79.43,1.41,1.04,1.88,1.83.46.78.7,1.69.72,2.71l-8.4,1.64c.27.73.71,1.3,1.35,1.7s1.39.6,2.28.6c1.26,0,2.28-.43,3.05-1.28ZM212.74,328.8c-.53.31-.93.73-1.23,1.29-.29.55-.44,1.19-.44,1.92v.2l6.76-1.28c-.17-.77-.56-1.4-1.16-1.88-.6-.48-1.32-.72-2.16-.72-.67,0-1.26.15-1.79.46Z"/><path class="cls-1" d="M238.32,324.9c1.08,1.08,1.62,2.64,1.62,4.66v7.84h-1.99v-3.85h-8.06v3.85h-1.96v-7.84c0-2.02.54-3.57,1.62-4.66,1.08-1.08,2.53-1.63,4.37-1.63s3.33.54,4.41,1.63ZM237.94,331.81v-2.43c0-1.42-.36-2.5-1.07-3.23-.71-.73-1.7-1.1-2.96-1.1s-2.25.37-2.96,1.1c-.71.73-1.07,1.81-1.07,3.23v2.43h8.06Z"/><path class="cls-1" d="M252.08,327.4c.81.45,1.45,1.08,1.9,1.9.46.81.69,1.75.69,2.81s-.23,2-.69,2.82c-.46.82-1.09,1.45-1.9,1.9-.81.45-1.73.68-2.75.68-.79,0-1.5-.15-2.15-.46-.65-.31-1.19-.75-1.62-1.34v1.68h-1.83v-14.8h1.92v5.82c.42-.56.96-.98,1.6-1.27s1.34-.43,2.09-.43c1.02,0,1.94.23,2.75.68ZM251,335.37c.54-.31.96-.75,1.28-1.32.31-.56.47-1.21.47-1.94s-.16-1.38-.47-1.94c-.31-.57-.74-1-1.28-1.31-.54-.31-1.15-.46-1.83-.46s-1.27.15-1.81.46c-.55.31-.97.74-1.28,1.31-.31.56-.46,1.21-.46,1.94s.15,1.38.46,1.94c.31.57.73,1,1.28,1.32.54.31,1.15.47,1.81.47s1.29-.16,1.83-.47Z"/><path class="cls-1" d="M265.15,334.57l1.04,1.24c-.46.56-1.05.98-1.76,1.28-.71.29-1.51.44-2.38.44-1.12,0-2.11-.23-2.97-.69-.86-.46-1.53-1.1-2-1.93-.47-.82-.71-1.76-.71-2.79s.23-1.95.69-2.77c.46-.82,1.09-1.47,1.89-1.92.8-.46,1.71-.69,2.72-.69.96,0,1.83.22,2.61.65.79.43,1.41,1.04,1.88,1.83.46.78.7,1.69.72,2.71l-8.4,1.64c.27.73.71,1.3,1.35,1.7s1.39.6,2.28.6c1.26,0,2.28-.43,3.05-1.28ZM259.87,328.8c-.53.31-.93.73-1.23,1.29-.29.55-.44,1.19-.44,1.92v.2l6.76-1.28c-.17-.77-.56-1.4-1.16-1.88-.6-.48-1.32-.72-2.16-.72-.67,0-1.26.15-1.79.46Z"/><path class="cls-1" d="M272.85,327.2c.65-.32,1.44-.48,2.37-.48v1.86c-.11-.01-.25-.02-.44-.02-1.04,0-1.85.31-2.44.93-.59.62-.89,1.5-.89,2.64v5.27h-1.92v-10.57h1.83v1.77c.33-.61.82-1.08,1.48-1.4Z"/><path class="cls-1" d="M283.14,336.78c-.28.24-.62.42-1.04.55-.41.13-.84.19-1.28.19-1.06,0-1.89-.29-2.47-.86-.58-.57-.88-1.39-.88-2.45v-9.69h1.92v2.31h3.03v1.58h-3.03v5.73c0,.57.14,1.01.43,1.32.29.31.69.46,1.23.46.58,0,1.08-.17,1.5-.5l.6,1.38Z"/><path class="cls-1" d="M295.07,326.83v10.57h-1.83v-1.68c-.43.59-.96,1.03-1.62,1.34-.65.31-1.37.46-2.15.46-1.02,0-1.94-.23-2.75-.68-.81-.45-1.45-1.09-1.9-1.9-.46-.82-.69-1.76-.69-2.82s.23-2,.69-2.81c.46-.81,1.09-1.44,1.9-1.9.81-.45,1.73-.68,2.75-.68.76,0,1.46.14,2.09.43s1.17.71,1.6,1.27v-1.6h1.92ZM291.44,335.37c.54-.31.97-.75,1.28-1.32.31-.56.46-1.21.46-1.94s-.15-1.38-.46-1.94c-.31-.57-.73-1-1.28-1.31-.55-.31-1.15-.46-1.82-.46s-1.29.15-1.83.46c-.54.31-.96.74-1.28,1.31-.31.56-.47,1.21-.47,1.94s.16,1.38.47,1.94c.31.57.74,1,1.28,1.32.54.31,1.15.47,1.83.47s1.27-.16,1.82-.47Z"/><path class="cls-1" d="M314.04,322.6v14.8h-1.83v-1.68c-.43.59-.96,1.03-1.62,1.34-.65.31-1.37.46-2.15.46-1.02,0-1.94-.23-2.75-.68-.81-.45-1.45-1.09-1.9-1.9-.46-.82-.69-1.76-.69-2.82s.23-2,.69-2.81c.46-.81,1.09-1.44,1.9-1.9.81-.45,1.73-.68,2.75-.68.76,0,1.46.14,2.09.43s1.17.71,1.6,1.27v-5.82h1.92ZM310.41,335.37c.54-.31.97-.75,1.28-1.32.31-.56.46-1.21.46-1.94s-.15-1.38-.46-1.94c-.31-.57-.73-1-1.28-1.31-.55-.31-1.15-.46-1.82-.46s-1.29.15-1.83.46c-.54.31-.96.74-1.28,1.31-.31.56-.47,1.21-.47,1.94s.16,1.38.47,1.94c.31.57.74,1,1.28,1.32.54.31,1.15.47,1.83.47s1.27-.16,1.82-.47Z"/><path class="cls-1" d="M319.37,336.82c-.84-.47-1.49-1.11-1.96-1.92s-.71-1.75-.71-2.78.24-1.96.71-2.78,1.13-1.46,1.96-1.92c.84-.46,1.78-.69,2.83-.69s1.99.23,2.82.69c.83.46,1.48,1.1,1.96,1.92.47.82.71,1.75.71,2.78s-.24,1.96-.71,2.78c-.47.82-1.12,1.46-1.96,1.92-.83.47-1.77.7-2.82.7s-2-.23-2.83-.7ZM324.03,335.37c.54-.31.96-.75,1.27-1.32.31-.56.46-1.21.46-1.94s-.15-1.38-.46-1.94c-.31-.57-.73-1-1.27-1.31-.54-.31-1.15-.46-1.83-.46s-1.29.15-1.83.46c-.54.31-.96.74-1.28,1.31-.31.56-.47,1.21-.47,1.94s.16,1.38.47,1.94c.31.57.74,1,1.28,1.32.54.31,1.15.47,1.83.47s1.29-.16,1.83-.47Z"/><path class="cls-1" d="M337.01,337.07c-.98-.33-1.75-.75-2.3-1.27l.74-1.56c.53.48,1.21.87,2.04,1.17s1.69.45,2.56.45c1.16,0,2.02-.2,2.59-.59.57-.39.86-.91.86-1.57,0-.48-.16-.87-.47-1.17s-.7-.53-1.16-.69c-.46-.16-1.11-.34-1.95-.54-1.05-.25-1.9-.51-2.54-.76-.65-.25-1.2-.64-1.66-1.17-.46-.52-.69-1.23-.69-2.12,0-.74.2-1.42.59-2.01.39-.6.99-1.08,1.79-1.44.8-.36,1.79-.54,2.97-.54.82,0,1.64.11,2.43.32.8.21,1.48.52,2.05.92l-.66,1.6c-.58-.37-1.21-.65-1.88-.85-.67-.19-1.32-.29-1.96-.29-1.13,0-1.98.21-2.54.62-.57.41-.85.94-.85,1.6,0,.48.16.87.48,1.17s.71.53,1.19.7,1.11.34,1.92.53c1.05.25,1.9.51,2.53.76.64.25,1.19.64,1.65,1.16s.69,1.22.69,2.09c0,.73-.2,1.4-.6,2-.4.6-1,1.08-1.82,1.44-.81.35-1.81.53-2.99.53-1.05,0-2.06-.16-3.04-.49Z"/><path class="cls-1" d="M360.02,323.43v13.96h-1.92v-1.98c-.94,1.42-2.46,2.13-4.55,2.13-1.66,0-2.96-.51-3.9-1.52s-1.41-2.45-1.41-4.33v-8.28h2v8.22c0,1.34.33,2.37,1,3.07s1.58,1.06,2.73,1.06c1.25,0,2.24-.37,2.97-1.12.73-.74,1.1-1.85,1.1-3.31v-7.92h1.97Z"/><path class="cls-1" d="M365.24,337.07c-.98-.33-1.75-.75-2.3-1.27l.74-1.56c.53.48,1.21.87,2.04,1.17s1.69.45,2.56.45c1.16,0,2.02-.2,2.59-.59.57-.39.86-.91.86-1.57,0-.48-.16-.87-.47-1.17s-.7-.53-1.16-.69c-.46-.16-1.11-.34-1.95-.54-1.05-.25-1.9-.51-2.54-.76-.65-.25-1.2-.64-1.66-1.17-.46-.52-.69-1.23-.69-2.12,0-.74.2-1.42.59-2.01.39-.6.99-1.08,1.79-1.44.8-.36,1.79-.54,2.97-.54.82,0,1.64.11,2.43.32.8.21,1.48.52,2.05.92l-.66,1.6c-.58-.37-1.21-.65-1.88-.85-.67-.19-1.32-.29-1.96-.29-1.13,0-1.98.21-2.54.62-.57.41-.85.94-.85,1.6,0,.48.16.87.48,1.17s.71.53,1.19.7,1.11.34,1.92.53c1.05.25,1.9.51,2.53.76.64.25,1.19.64,1.65,1.16s.69,1.22.69,2.09c0,.73-.2,1.4-.6,2-.4.6-1,1.08-1.82,1.44-.81.35-1.81.53-2.99.53-1.05,0-2.06-.16-3.04-.49Z"/></svg>