<?xml version="1.0" encoding="UTF-8"?><svg id="Camada_1" xmlns="http://www.w3.org/2000/svg" viewBox="0 0 315.07 468.72"><defs><style>.cls-1{fill:#071b8e;stroke-width:0px;}</style></defs><path class="cls-1" d="M164.03,157.62c0,3.85-3.13,6.99-6.99,6.99s-6.99-3.13-6.99-6.99v-69.72c-3.86.39-7.69,1.09-11.39,2.1v67.62c0,10.17,8.27,18.45,18.45,18.45s18.45-8.27,18.45-18.45v-67.62c-3.75-1.02-7.62-1.73-11.52-2.11v69.74Z"/><path class="cls-1" d="M157.11,190.04c-17.87,0-32.42-14.54-32.42-32.42v-62.14c-4.09,2.14-7.99,4.7-11.59,7.61v54.47c0,24.23,19.71,43.94,43.94,43.94s43.94-19.71,43.94-43.94v-54.58c-3.57-2.87-7.42-5.39-11.46-7.5v62.14c0,17.87-14.54,32.42-32.42,32.42Z"/><path class="cls-1" d="M157.04,215.47c-31.93,0-57.91-25.98-57.91-57.91v-39.31c-7.92,11.64-12.1,25.2-12.1,39.37,0,2.02.09,4.1.27,6.18.2,2.34.53,4.69.97,6.99.43,2.29.99,4.58,1.65,6.81.68,2.29,1.48,4.56,2.39,6.75,2.07,5.01,4.73,9.79,7.91,14.2.94,1.3,1.91,2.55,2.89,3.74,12.19,14.72,30.07,23.92,49.06,25.24,1.67.12,3.34.18,4.94.18,1.03,0,2.08-.03,3.22-.08,19.35-.88,37.67-9.88,50.24-24.69,1.07-1.27,2.11-2.58,3.09-3.92,3.29-4.49,6.03-9.33,8.15-14.42.9-2.16,1.71-4.4,2.39-6.66.66-2.17,1.21-4.4,1.65-6.62.42-2.14.75-4.3.97-6.43.25-2.4.37-4.84.37-7.26,0-14.25-4.22-27.88-12.23-39.56v39.5c0,1.09-.03,2.23-.1,3.39-1.77,30.57-27.17,54.52-57.81,54.52Z"/><path class="cls-1" d="M93.16,302.6c-3.39-3.46-5.27-8.29-5.27-13.63v-34.27h9.94v34.42c0,5.65,3.39,9.04,8.96,9.04s9.04-3.39,9.04-9.04v-34.42h9.94v34.27c0,5.35-1.88,10.17-5.27,13.63-3.46,3.39-8.29,5.27-13.71,5.27s-10.17-1.88-13.63-5.27Z"/><path class="cls-1" d="M170.78,258.76c3.39,3.39,5.27,8.21,5.27,13.56v34.65h-9.94v-34.87c0-5.57-3.39-8.96-9.04-8.96s-8.96,3.39-8.96,8.96v34.87h-9.94v-34.65c0-5.35,1.88-10.17,5.27-13.56,3.46-3.46,8.29-5.35,13.63-5.35s10.24,1.88,13.71,5.35Z"/><path class="cls-1" d="M226.7,306.96h-9.94v-14.61h-18v14.61h-9.94v-34.65c0-5.35,1.88-10.17,5.27-13.56,3.46-3.46,8.29-5.35,13.63-5.35s10.24,1.88,13.71,5.35c3.39,3.39,5.27,8.21,5.27,13.56v34.65ZM216.76,272.09c0-5.57-3.39-8.96-9.04-8.96s-8.96,3.39-8.96,8.96v10.7h18v-10.7Z"/><path class="cls-1" d="M143.77,375.57c-3.39-3.46-5.27-8.29-5.27-13.63v-34.27h9.94v34.42c0,5.65,3.39,9.04,8.96,9.04s9.04-3.39,9.04-9.04v-34.42h9.94v34.27c0,5.35-1.88,10.17-5.27,13.63-3.46,3.39-8.29,5.27-13.71,5.27s-10.17-1.88-13.63-5.27Z"/><path class="cls-1" d="M125.24,343.48h-9.17c0-4.52-3.47-7.91-9.31-7.91-4.86,0-9.38,2.03-9.38,6.03,0,3.62,3.27,4.9,10.63,6.55,11.46,2.49,18.69,5.57,18.69,16.27,0,10.09-7.78,16.42-19.94,16.42-9.45,0-19.73-5.65-19.73-18.23h9.17c0,6.18,5.7,9.11,10.56,9.11,5.28,0,10.77-2.03,10.77-7.01,0-3.31-2.5-5.35-11.39-7.23-8.89-1.88-17.92-4.75-17.92-15.97,0-8.96,7.29-15.21,18.55-15.21,12.71,0,18.48,8.89,18.48,17.17Z"/><path class="cls-1" d="M225.72,343.48h-9.17c0-4.52-3.47-7.91-9.31-7.91-4.86,0-9.38,2.03-9.38,6.03,0,3.62,3.27,4.9,10.63,6.55,11.46,2.49,18.69,5.57,18.69,16.27,0,10.09-7.78,16.42-19.94,16.42-9.45,0-19.73-5.65-19.73-18.23h9.17c0,6.18,5.7,9.11,10.56,9.11,5.28,0,10.77-2.03,10.77-7.01,0-3.31-2.5-5.35-11.39-7.23-8.89-1.88-17.92-4.75-17.92-15.97,0-8.96,7.29-15.21,18.55-15.21,12.71,0,18.48,8.89,18.48,17.17Z"/></svg>