<?xml version="1.0" encoding="UTF-8"?><svg id="Camada_1" xmlns="http://www.w3.org/2000/svg" viewBox="0 0 461.57 393.1"><defs><style>.cls-1{fill:#fff;stroke-width:0px;}</style></defs><path class="cls-1" d="M237.55,156.57c0,3.79-3.09,6.88-6.88,6.88s-6.88-3.09-6.88-6.88v-68.67c-3.8.38-7.57,1.07-11.22,2.07v66.61c0,10.02,8.15,18.17,18.17,18.17s18.17-8.15,18.17-18.17v-66.61c-3.69-1-7.51-1.7-11.35-2.08v68.69Z"/><path class="cls-1" d="M230.74,188.5c-17.61,0-31.93-14.32-31.93-31.93v-61.21c-4.03,2.11-7.87,4.62-11.42,7.49v53.65c0,23.86,19.41,43.28,43.28,43.28s43.28-19.41,43.28-43.28v-53.76c-3.51-2.82-7.3-5.31-11.29-7.39v61.21c0,17.61-14.32,31.93-31.93,31.93Z"/><path class="cls-1" d="M230.67,213.55c-31.45,0-57.04-25.59-57.04-57.04v-38.71c-7.81,11.46-11.92,24.82-11.92,38.78,0,1.99.09,4.03.27,6.09.2,2.3.52,4.62.95,6.88.43,2.25.98,4.51,1.63,6.7.67,2.25,1.46,4.49,2.35,6.65,2.04,4.94,4.66,9.64,7.79,13.98.92,1.28,1.88,2.52,2.84,3.68,12,14.5,29.62,23.56,48.32,24.86,1.65.12,3.29.17,4.87.17,1.01,0,2.05-.02,3.17-.08,19.06-.86,37.1-9.73,49.48-24.32,1.06-1.25,2.08-2.55,3.05-3.86,3.24-4.42,5.94-9.19,8.03-14.2.89-2.13,1.68-4.34,2.35-6.56.65-2.14,1.19-4.34,1.63-6.52.42-2.1.74-4.23.95-6.33.24-2.37.37-4.77.37-7.15,0-14.04-4.16-27.46-12.05-38.97v38.9c0,1.07-.03,2.19-.1,3.34-1.75,30.11-26.76,53.7-56.94,53.7Z"/><path class="cls-1" d="M93.08,300.78c-3.34-3.41-5.19-8.16-5.19-13.43v-33.75h9.79v33.9c0,5.56,3.34,8.9,8.83,8.9s8.9-3.34,8.9-8.9v-33.9h9.79v33.75c0,5.27-1.85,10.02-5.19,13.43-3.41,3.34-8.16,5.19-13.5,5.19s-10.02-1.85-13.43-5.19Z"/><path class="cls-1" d="M169.53,257.6c3.34,3.34,5.19,8.09,5.19,13.35v34.13h-9.79v-34.35c0-5.49-3.34-8.83-8.9-8.83s-8.83,3.34-8.83,8.83v34.35h-9.79v-34.13c0-5.27,1.85-10.02,5.19-13.35,3.41-3.41,8.16-5.27,13.43-5.27s10.09,1.85,13.5,5.27Z"/><path class="cls-1" d="M224.61,305.08h-9.79v-14.39h-17.73v14.39h-9.79v-34.13c0-5.27,1.85-10.02,5.19-13.35,3.41-3.41,8.16-5.27,13.43-5.27s10.09,1.85,13.5,5.27,5.19,8.09,5.19,13.35v34.13ZM214.82,270.73c0-5.49-3.34-8.83-8.9-8.83s-8.83,3.34-8.83,8.83v10.53h17.73v-10.53Z"/><path class="cls-1" d="M291.43,300.78c-3.34-3.41-5.19-8.16-5.19-13.43v-33.75h9.79v33.9c0,5.56,3.34,8.9,8.83,8.9s8.9-3.34,8.9-8.9v-33.9h9.79v33.75c0,5.27-1.85,10.02-5.19,13.43-3.41,3.34-8.16,5.19-13.5,5.19s-10.02-1.85-13.43-5.19Z"/><path class="cls-1" d="M273.19,269.17h-9.03c0-4.45-3.42-7.79-9.17-7.79-4.79,0-9.24,2-9.24,5.93,0,3.56,3.22,4.82,10.47,6.45,11.29,2.45,18.41,5.49,18.41,16.02,0,9.94-7.66,16.17-19.64,16.17-9.31,0-19.43-5.56-19.43-17.95h9.03c0,6.08,5.61,8.98,10.4,8.98,5.2,0,10.61-2,10.61-6.9,0-3.26-2.46-5.27-11.22-7.12-8.76-1.85-17.65-4.67-17.65-15.73,0-8.83,7.18-14.99,18.27-14.99,12.52,0,18.2,8.75,18.2,16.91Z"/><path class="cls-1" d="M372.15,269.17h-9.03c0-4.45-3.42-7.79-9.17-7.79-4.79,0-9.24,2-9.24,5.93,0,3.56,3.22,4.82,10.47,6.45,11.29,2.45,18.41,5.49,18.41,16.02,0,9.94-7.66,16.17-19.64,16.17-9.31,0-19.43-5.56-19.43-17.95h9.03c0,6.08,5.61,8.98,10.4,8.98,5.2,0,10.61-2,10.61-6.9,0-3.26-2.46-5.27-11.22-7.12-8.76-1.85-17.65-4.67-17.65-15.73,0-8.83,7.18-14.99,18.27-14.99,12.52,0,18.2,8.75,18.2,16.91Z"/></svg>