<?xml version="1.0" encoding="UTF-8"?><svg id="Camada_1" xmlns="http://www.w3.org/2000/svg" viewBox="0 0 484.97 316.35"><defs><style>.cls-1{fill:#071b8e;stroke-width:0px;}</style></defs><path class="cls-1" d="M164.96,158.32c0,3.86-3.14,6.99-6.99,6.99s-6.99-3.14-6.99-6.99v-69.79c-3.86.39-7.69,1.09-11.41,2.1v67.69c0,10.18,8.28,18.46,18.46,18.46s18.46-8.28,18.46-18.46v-67.69c-3.75-1.02-7.63-1.73-11.54-2.11v69.8Z"/><path class="cls-1" d="M158.03,190.77c-17.89,0-32.45-14.56-32.45-32.45v-62.2c-4.1,2.14-8,4.7-11.6,7.61v54.53c0,24.25,19.73,43.98,43.98,43.98s43.98-19.73,43.98-43.98v-54.63c-3.57-2.87-7.42-5.39-11.47-7.51v62.2c0,17.89-14.56,32.45-32.45,32.45Z"/><path class="cls-1" d="M157.97,216.22c-31.96,0-57.97-26-57.97-57.97v-39.34c-7.93,11.65-12.11,25.23-12.11,39.41,0,2.02.09,4.1.27,6.19.2,2.34.53,4.69.97,7,.44,2.29.99,4.58,1.65,6.81.68,2.29,1.48,4.56,2.39,6.76,2.07,5.02,4.73,9.8,7.91,14.21.94,1.3,1.91,2.56,2.89,3.74,12.2,14.73,30.1,23.94,49.11,25.27,1.68.12,3.34.18,4.95.18,1.03,0,2.08-.03,3.22-.08,19.37-.88,37.7-9.89,50.29-24.72,1.08-1.27,2.12-2.59,3.09-3.92,3.29-4.49,6.03-9.34,8.16-14.44.9-2.17,1.71-4.41,2.39-6.67.66-2.18,1.21-4.41,1.65-6.63.42-2.14.75-4.3.97-6.43.25-2.4.37-4.85.37-7.27,0-14.26-4.23-27.91-12.24-39.6v39.54c0,1.09-.03,2.23-.1,3.39-1.78,30.6-27.19,54.58-57.87,54.58Z"/><path class="cls-1" d="M263.41,143.95c-3.39-3.47-5.28-8.29-5.28-13.65v-34.3h9.95v34.46c0,5.65,3.39,9.05,8.97,9.05s9.05-3.39,9.05-9.05v-34.46h9.95v34.3c0,5.35-1.88,10.18-5.28,13.65-3.47,3.39-8.29,5.28-13.72,5.28s-10.18-1.88-13.65-5.28Z"/><path class="cls-1" d="M341.11,100.07c3.39,3.39,5.28,8.22,5.28,13.57v34.68h-9.95v-34.91c0-5.58-3.39-8.97-9.05-8.97s-8.97,3.39-8.97,8.97v34.91h-9.95v-34.68c0-5.35,1.88-10.18,5.28-13.57,3.47-3.47,8.29-5.35,13.65-5.35s10.25,1.88,13.72,5.35Z"/><path class="cls-1" d="M397.09,148.32h-9.95v-14.63h-18.02v14.63h-9.95v-34.68c0-5.35,1.88-10.18,5.28-13.57,3.47-3.47,8.29-5.35,13.65-5.35s10.25,1.88,13.72,5.35c3.39,3.39,5.28,8.22,5.28,13.57v34.68ZM387.14,113.41c0-5.58-3.39-8.97-9.05-8.97s-8.97,3.39-8.97,8.97v10.71h18.02v-10.71Z"/><path class="cls-1" d="M314.07,216.99c-3.39-3.47-5.28-8.29-5.28-13.65v-34.3h9.95v34.46c0,5.65,3.39,9.05,8.97,9.05s9.05-3.39,9.05-9.05v-34.46h9.95v34.3c0,5.35-1.88,10.18-5.28,13.65-3.47,3.39-8.29,5.28-13.72,5.28s-10.18-1.88-13.65-5.28Z"/><path class="cls-1" d="M295.53,184.87h-9.18c0-4.52-3.48-7.92-9.32-7.92-4.87,0-9.39,2.04-9.39,6.03,0,3.62,3.27,4.9,10.64,6.56,11.47,2.49,18.71,5.58,18.71,16.29,0,10.1-7.79,16.44-19.96,16.44-9.46,0-19.75-5.65-19.75-18.25h9.18c0,6.18,5.7,9.12,10.57,9.12,5.28,0,10.78-2.04,10.78-7.01,0-3.32-2.5-5.35-11.4-7.24-8.9-1.88-17.94-4.75-17.94-15.98,0-8.97,7.3-15.23,18.57-15.23,12.73,0,18.5,8.9,18.5,17.19Z"/><path class="cls-1" d="M396.11,184.87h-9.18c0-4.52-3.48-7.92-9.32-7.92-4.87,0-9.39,2.04-9.39,6.03,0,3.62,3.27,4.9,10.64,6.56,11.47,2.49,18.71,5.58,18.71,16.29,0,10.1-7.79,16.44-19.96,16.44-9.46,0-19.75-5.65-19.75-18.25h9.18c0,6.18,5.7,9.12,10.57,9.12,5.28,0,10.78-2.04,10.78-7.01,0-3.32-2.5-5.35-11.4-7.24-8.9-1.88-17.94-4.75-17.94-15.98,0-8.97,7.3-15.23,18.57-15.23,12.73,0,18.5,8.9,18.5,17.19Z"/></svg>