<?xml version="1.0" encoding="UTF-8"?><svg id="Camada_1" xmlns="http://www.w3.org/2000/svg" viewBox="0 0 605.69 306.3"><defs><style>.cls-1{fill:#fff;stroke-width:0px;}</style></defs><path class="cls-1" d="M159.77,152.99c0,3.6-2.93,6.52-6.52,6.52s-6.52-2.93-6.52-6.52v-65.1c-3.6.36-7.18,1.02-10.64,1.96v63.14c0,9.5,7.73,17.22,17.22,17.22s17.22-7.73,17.22-17.22v-63.14c-3.5-.95-7.12-1.62-10.76-1.97v65.11Z"/><path class="cls-1" d="M153.31,183.26c-16.69,0-30.27-13.58-30.27-30.27v-58.02c-3.82,2-7.46,4.38-10.82,7.1v50.86c0,22.62,18.4,41.02,41.02,41.02s41.02-18.4,41.02-41.02v-50.96c-3.33-2.68-6.92-5.03-10.7-7v58.02c0,16.69-13.58,30.27-30.27,30.27Z"/><path class="cls-1" d="M153.25,207c-29.81,0-54.07-24.26-54.07-54.07v-36.7c-7.4,10.86-11.3,23.53-11.3,36.76,0,1.88.09,3.82.26,5.77.19,2.18.49,4.38.9,6.52.41,2.14.92,4.27,1.54,6.35.63,2.13,1.38,4.25,2.23,6.3,1.93,4.68,4.42,9.14,7.38,13.25.88,1.21,1.78,2.39,2.69,3.49,11.38,13.74,28.07,22.33,45.81,23.57,1.56.11,3.12.16,4.62.16.96,0,1.94-.02,3.01-.07,18.07-.82,35.17-9.22,46.9-23.05,1-1.18,1.97-2.41,2.89-3.66,3.07-4.19,5.63-8.71,7.61-13.47.84-2.02,1.59-4.11,2.23-6.22.61-2.03,1.13-4.11,1.54-6.18.4-1.99.7-4.01.9-6,.23-2.24.35-4.52.35-6.78,0-13.3-3.94-26.03-11.42-36.94v36.88c0,1.01-.03,2.08-.09,3.16-1.66,28.55-25.36,50.91-53.97,50.91Z"/><path class="cls-1" d="M251.82,156.15c-3.16-3.23-4.92-7.74-4.92-12.73v-32h9.28v32.14c0,5.27,3.16,8.44,8.37,8.44s8.44-3.16,8.44-8.44v-32.14h9.28v32c0,4.99-1.76,9.49-4.92,12.73-3.23,3.16-7.74,4.92-12.8,4.92s-9.49-1.76-12.73-4.92Z"/><path class="cls-1" d="M324.29,115.22c3.16,3.16,4.92,7.67,4.92,12.66v32.35h-9.28v-32.56c0-5.2-3.16-8.37-8.44-8.37s-8.37,3.16-8.37,8.37v32.56h-9.28v-32.35c0-4.99,1.76-9.49,4.92-12.66s7.74-4.99,12.73-4.99,9.56,1.76,12.8,4.99Z"/><path class="cls-1" d="M376.5,160.23h-9.28v-13.64h-16.81v13.64h-9.28v-32.35c0-4.99,1.76-9.49,4.92-12.66s7.74-4.99,12.73-4.99,9.56,1.76,12.8,4.99c3.16,3.16,4.92,7.67,4.92,12.66v32.35ZM367.22,127.67c0-5.2-3.16-8.37-8.44-8.37s-8.37,3.16-8.37,8.37v9.99h16.81v-9.99Z"/><path class="cls-1" d="M439.84,156.15c-3.16-3.23-4.92-7.74-4.92-12.73v-32h9.28v32.14c0,5.27,3.16,8.44,8.37,8.44s8.44-3.16,8.44-8.44v-32.14h9.28v32c0,4.99-1.76,9.49-4.92,12.73-3.23,3.16-7.74,4.92-12.8,4.92s-9.49-1.76-12.73-4.92Z"/><path class="cls-1" d="M422.55,126.19h-8.56c0-4.22-3.24-7.38-8.69-7.38-4.54,0-8.76,1.9-8.76,5.63,0,3.38,3.05,4.57,9.92,6.12,10.7,2.32,17.45,5.2,17.45,15.19,0,9.42-7.26,15.33-18.61,15.33-8.82,0-18.42-5.27-18.42-17.02h8.56c0,5.77,5.32,8.51,9.86,8.51,4.93,0,10.05-1.9,10.05-6.54,0-3.09-2.33-4.99-10.64-6.75-8.3-1.76-16.73-4.43-16.73-14.91,0-8.37,6.81-14.21,17.32-14.21,11.87,0,17.25,8.3,17.25,16.03Z"/><path class="cls-1" d="M516.36,126.19h-8.56c0-4.22-3.24-7.38-8.69-7.38-4.54,0-8.76,1.9-8.76,5.63,0,3.38,3.05,4.57,9.92,6.12,10.7,2.32,17.45,5.2,17.45,15.19,0,9.42-7.26,15.33-18.61,15.33-8.82,0-18.42-5.27-18.42-17.02h8.56c0,5.77,5.32,8.51,9.86,8.51,4.93,0,10.05-1.9,10.05-6.54,0-3.09-2.33-4.99-10.64-6.75-8.3-1.76-16.73-4.43-16.73-14.91,0-8.37,6.81-14.21,17.32-14.21,11.87,0,17.25,8.3,17.25,16.03Z"/><path class="cls-1" d="M257.98,177.63v13.24h-1.81v-1.87c-.9,1.35-2.33,2.02-4.31,2.02-1.58,0-2.81-.48-3.7-1.44-.89-.96-1.33-2.33-1.33-4.1v-7.85h1.89v7.79c0,1.27.31,2.24.94,2.91s1.49,1,2.59,1c1.19,0,2.12-.35,2.82-1.06.69-.71,1.04-1.75,1.04-3.14v-7.51h1.87Z"/><path class="cls-1" d="M270.07,181.85c.75.74,1.12,1.82,1.12,3.24v5.77h-1.81v-5.56c0-.97-.23-1.7-.7-2.19-.47-.49-1.13-.74-2-.74-.98,0-1.76.29-2.33.86-.57.57-.85,1.4-.85,2.47v5.16h-1.82v-10.02h1.74v1.51c.37-.52.86-.91,1.48-1.19.62-.28,1.33-.42,2.13-.42,1.27,0,2.28.37,3.03,1.11Z"/><path class="cls-1" d="M274.59,178.57c-.23-.23-.35-.5-.35-.83s.12-.61.35-.84c.23-.23.53-.35.88-.35s.65.11.88.33c.23.22.35.5.35.82s-.12.63-.35.86c-.23.23-.53.35-.88.35s-.65-.11-.88-.34ZM274.56,180.84h1.82v10.02h-1.82v-10.02Z"/><path class="cls-1" d="M288.71,180.84l-4.39,10.02h-1.85l-4.39-10.02h1.89l3.44,8.04,3.52-8.04h1.78Z"/><path class="cls-1" d="M297.54,188.18l.98,1.17c-.44.53-1,.93-1.67,1.21-.67.28-1.43.42-2.26.42-1.06,0-2-.22-2.82-.65-.82-.43-1.45-1.04-1.9-1.82-.45-.78-.67-1.66-.67-2.65s.22-1.85.65-2.63,1.03-1.39,1.8-1.82c.76-.44,1.62-.65,2.58-.65.91,0,1.73.2,2.48.61.74.41,1.34.99,1.78,1.73.44.74.67,1.6.68,2.57l-7.96,1.55c.25.69.68,1.23,1.28,1.61.6.38,1.32.57,2.17.57,1.2,0,2.16-.4,2.89-1.21ZM292.54,182.72c-.5.29-.89.7-1.16,1.22-.28.52-.42,1.13-.42,1.82v.19l6.41-1.21c-.16-.73-.53-1.32-1.1-1.78-.57-.45-1.25-.68-2.04-.68-.63,0-1.2.14-1.69.44Z"/><path class="cls-1" d="M304.84,181.2c.62-.3,1.37-.45,2.25-.45v1.76c-.1-.01-.24-.02-.42-.02-.98,0-1.76.29-2.32.88-.56.59-.84,1.42-.84,2.51v4.99h-1.82v-10.02h1.74v1.68c.31-.58.78-1.02,1.4-1.32Z"/><path class="cls-1" d="M309.91,190.65c-.76-.22-1.35-.5-1.78-.84l.76-1.44c.44.32.98.57,1.61.76.63.19,1.27.28,1.91.28,1.59,0,2.38-.45,2.38-1.36,0-.3-.11-.54-.32-.72-.21-.18-.48-.31-.8-.39-.32-.08-.78-.17-1.37-.27-.81-.13-1.46-.27-1.98-.43-.51-.16-.95-.44-1.31-.83-.37-.39-.55-.94-.55-1.64,0-.91.38-1.64,1.13-2.18.76-.55,1.77-.82,3.04-.82.67,0,1.34.08,2,.25.67.16,1.22.38,1.64.66l-.78,1.44c-.82-.53-1.78-.79-2.89-.79-.77,0-1.36.13-1.76.38-.4.25-.6.59-.6,1,0,.33.11.59.34.78s.51.33.84.42c.33.09.8.19,1.41.3.81.14,1.46.29,1.96.44.5.16.92.43,1.28.8.35.38.53.91.53,1.59,0,.91-.39,1.63-1.16,2.17-.78.54-1.83.8-3.17.8-.82,0-1.61-.11-2.36-.33Z"/><path class="cls-1" d="M318.9,178.57c-.23-.23-.35-.5-.35-.83s.12-.61.35-.84c.23-.23.53-.35.88-.35s.65.11.88.33c.23.22.35.5.35.82s-.12.63-.35.86c-.23.23-.53.35-.88.35s-.65-.11-.88-.34ZM318.87,180.84h1.82v10.02h-1.82v-10.02Z"/><path class="cls-1" d="M333.6,176.83v14.03h-1.74v-1.59c-.4.55-.91.98-1.53,1.27-.62.29-1.3.44-2.04.44-.97,0-1.84-.21-2.61-.64-.77-.43-1.37-1.03-1.81-1.81s-.65-1.67-.65-2.68.22-1.9.65-2.67c.44-.77,1.04-1.37,1.81-1.8.77-.43,1.64-.64,2.61-.64.72,0,1.38.14,1.99.41s1.11.67,1.51,1.2v-5.52h1.82ZM330.16,188.95c.52-.3.92-.71,1.21-1.25.29-.54.43-1.15.43-1.84s-.14-1.31-.43-1.84c-.29-.54-.69-.95-1.21-1.24-.52-.29-1.09-.44-1.72-.44s-1.22.14-1.73.44c-.51.29-.91.7-1.21,1.24s-.44,1.15-.44,1.84.15,1.31.44,1.84c.3.54.7.95,1.21,1.25.51.3,1.09.44,1.73.44s1.2-.15,1.72-.44Z"/><path class="cls-1" d="M346.49,180.84v10.02h-1.74v-1.59c-.4.55-.91.98-1.53,1.27-.62.29-1.3.44-2.04.44-.97,0-1.84-.21-2.61-.64-.77-.43-1.37-1.03-1.81-1.81s-.65-1.67-.65-2.68.22-1.9.65-2.67c.44-.77,1.04-1.37,1.81-1.8.77-.43,1.64-.64,2.61-.64.72,0,1.38.14,1.99.41s1.11.67,1.51,1.2v-1.51h1.82ZM343.05,188.95c.52-.3.92-.71,1.21-1.25.29-.54.43-1.15.43-1.84s-.14-1.31-.43-1.84c-.29-.54-.69-.95-1.21-1.24-.52-.29-1.09-.44-1.72-.44s-1.22.14-1.73.44c-.51.29-.91.7-1.21,1.24s-.44,1.15-.44,1.84.15,1.31.44,1.84c.3.54.7.95,1.21,1.25.51.3,1.09.44,1.73.44s1.2-.15,1.72-.44Z"/><path class="cls-1" d="M359.39,176.83v14.03h-1.74v-1.59c-.4.55-.91.98-1.53,1.27-.62.29-1.3.44-2.04.44-.97,0-1.84-.21-2.61-.64-.77-.43-1.37-1.03-1.81-1.81s-.65-1.67-.65-2.68.22-1.9.65-2.67c.44-.77,1.04-1.37,1.81-1.8.77-.43,1.64-.64,2.61-.64.72,0,1.38.14,1.99.41s1.11.67,1.51,1.2v-5.52h1.82ZM355.95,188.95c.52-.3.92-.71,1.21-1.25.29-.54.43-1.15.43-1.84s-.14-1.31-.43-1.84c-.29-.54-.69-.95-1.21-1.24-.52-.29-1.09-.44-1.72-.44s-1.22.14-1.73.44c-.51.29-.91.7-1.21,1.24s-.44,1.15-.44,1.84.15,1.31.44,1.84c.3.54.7.95,1.21,1.25.51.3,1.09.44,1.73.44s1.2-.15,1.72-.44Z"/><path class="cls-1" d="M370.24,188.18l.98,1.17c-.44.53-1,.93-1.67,1.21-.67.28-1.43.42-2.26.42-1.06,0-2-.22-2.82-.65-.82-.43-1.45-1.04-1.9-1.82-.45-.78-.67-1.66-.67-2.65s.22-1.85.65-2.63,1.03-1.39,1.8-1.82c.76-.44,1.62-.65,2.58-.65.91,0,1.73.2,2.48.61.74.41,1.34.99,1.78,1.73.44.74.67,1.6.68,2.57l-7.96,1.55c.25.69.68,1.23,1.28,1.61.6.38,1.32.57,2.17.57,1.2,0,2.16-.4,2.89-1.21ZM365.24,182.72c-.5.29-.89.7-1.16,1.22-.28.52-.42,1.13-.42,1.82v.19l6.41-1.21c-.16-.73-.53-1.32-1.1-1.78-.57-.45-1.25-.68-2.04-.68-.63,0-1.2.14-1.69.44Z"/><path class="cls-1" d="M389.49,179.02c1.02,1.03,1.53,2.5,1.53,4.42v7.43h-1.89v-3.65h-7.64v3.65h-1.85v-7.43c0-1.92.51-3.39,1.53-4.42,1.02-1.03,2.4-1.54,4.14-1.54s3.16.51,4.18,1.54ZM389.13,185.57v-2.31c0-1.35-.34-2.37-1.01-3.06-.67-.69-1.61-1.04-2.81-1.04s-2.13.35-2.81,1.04c-.67.69-1.01,1.71-1.01,3.06v2.31h7.64Z"/><path class="cls-1" d="M402.54,181.39c.77.43,1.37,1.03,1.81,1.8.44.77.65,1.66.65,2.67s-.22,1.9-.65,2.68-1.04,1.38-1.81,1.81c-.77.43-1.64.64-2.61.64-.74,0-1.42-.14-2.04-.44-.62-.29-1.13-.71-1.53-1.27v1.59h-1.74v-14.03h1.82v5.52c.4-.53.91-.93,1.51-1.2s1.27-.41,1.99-.41c.97,0,1.84.21,2.61.64ZM401.51,188.95c.51-.3.91-.71,1.21-1.25.3-.54.44-1.15.44-1.84s-.15-1.31-.44-1.84-.7-.95-1.21-1.24c-.51-.29-1.09-.44-1.73-.44s-1.2.14-1.72.44c-.52.29-.92.7-1.21,1.24-.29.54-.44,1.15-.44,1.84s.14,1.31.44,1.84c.29.54.69.95,1.21,1.25.52.3,1.09.44,1.72.44s1.22-.15,1.73-.44Z"/><path class="cls-1" d="M414.93,188.18l.98,1.17c-.44.53-1,.93-1.67,1.21-.67.28-1.43.42-2.26.42-1.06,0-2-.22-2.82-.65-.82-.43-1.45-1.04-1.9-1.82-.45-.78-.67-1.66-.67-2.65s.22-1.85.65-2.63,1.03-1.39,1.8-1.82c.76-.44,1.62-.65,2.58-.65.91,0,1.73.2,2.48.61.74.41,1.34.99,1.78,1.73.44.74.67,1.6.68,2.57l-7.96,1.55c.25.69.68,1.23,1.28,1.61.6.38,1.32.57,2.17.57,1.2,0,2.16-.4,2.89-1.21ZM409.92,182.72c-.5.29-.89.7-1.16,1.22-.28.52-.42,1.13-.42,1.82v.19l6.41-1.21c-.16-.73-.53-1.32-1.1-1.78-.57-.45-1.25-.68-2.04-.68-.63,0-1.2.14-1.69.44Z"/><path class="cls-1" d="M422.22,181.2c.62-.3,1.37-.45,2.25-.45v1.76c-.1-.01-.24-.02-.42-.02-.98,0-1.76.29-2.32.88-.56.59-.84,1.42-.84,2.51v4.99h-1.82v-10.02h1.74v1.68c.31-.58.78-1.02,1.4-1.32Z"/><path class="cls-1" d="M431.98,190.28c-.26.23-.59.4-.98.52-.39.12-.79.18-1.21.18-1.01,0-1.79-.27-2.35-.81-.56-.54-.83-1.32-.83-2.33v-9.19h1.82v2.19h2.87v1.49h-2.87v5.43c0,.54.13.96.41,1.25.27.29.66.43,1.16.43.55,0,1.03-.16,1.42-.47l.57,1.3Z"/><path class="cls-1" d="M443.29,180.84v10.02h-1.74v-1.59c-.4.55-.91.98-1.53,1.27-.62.29-1.3.44-2.04.44-.97,0-1.84-.21-2.61-.64-.77-.43-1.37-1.03-1.81-1.81s-.65-1.67-.65-2.68.22-1.9.65-2.67c.44-.77,1.04-1.37,1.81-1.8.77-.43,1.64-.64,2.61-.64.72,0,1.38.14,1.99.41s1.11.67,1.51,1.2v-1.51h1.82ZM439.85,188.95c.52-.3.92-.71,1.21-1.25.29-.54.43-1.15.43-1.84s-.14-1.31-.43-1.84c-.29-.54-.69-.95-1.21-1.24-.52-.29-1.09-.44-1.72-.44s-1.22.14-1.73.44c-.51.29-.91.7-1.21,1.24s-.44,1.15-.44,1.84.15,1.31.44,1.84c.3.54.7.95,1.21,1.25.51.3,1.09.44,1.73.44s1.2-.15,1.72-.44Z"/><path class="cls-1" d="M461.27,176.83v14.03h-1.74v-1.59c-.4.55-.91.98-1.53,1.27-.62.29-1.3.44-2.04.44-.97,0-1.84-.21-2.61-.64-.77-.43-1.37-1.03-1.81-1.81s-.65-1.67-.65-2.68.22-1.9.65-2.67c.44-.77,1.04-1.37,1.81-1.8.77-.43,1.64-.64,2.61-.64.72,0,1.38.14,1.99.41s1.11.67,1.51,1.2v-5.52h1.82ZM457.83,188.95c.52-.3.92-.71,1.21-1.25.29-.54.43-1.15.43-1.84s-.14-1.31-.43-1.84c-.29-.54-.69-.95-1.21-1.24-.52-.29-1.09-.44-1.72-.44s-1.22.14-1.73.44c-.51.29-.91.7-1.21,1.24s-.44,1.15-.44,1.84.15,1.31.44,1.84c.3.54.7.95,1.21,1.25.51.3,1.09.44,1.73.44s1.2-.15,1.72-.44Z"/><path class="cls-1" d="M466.32,190.32c-.79-.44-1.42-1.05-1.86-1.82-.45-.78-.67-1.65-.67-2.64s.22-1.86.67-2.64c.45-.78,1.07-1.38,1.86-1.82.79-.44,1.69-.65,2.69-.65s1.89.22,2.68.65,1.41,1.04,1.85,1.82.67,1.65.67,2.64-.22,1.86-.67,2.64-1.07,1.38-1.85,1.82c-.79.44-1.68.66-2.68.66s-1.89-.22-2.69-.66ZM470.74,188.95c.51-.3.91-.71,1.2-1.25.29-.54.43-1.15.43-1.84s-.14-1.31-.43-1.84c-.29-.54-.69-.95-1.2-1.24-.51-.29-1.09-.44-1.73-.44s-1.22.14-1.73.44c-.51.29-.91.7-1.21,1.24s-.44,1.15-.44,1.84.15,1.31.44,1.84c.3.54.7.95,1.21,1.25.51.3,1.09.44,1.73.44s1.22-.15,1.73-.44Z"/><path class="cls-1" d="M483.04,190.55c-.93-.31-1.65-.71-2.18-1.2l.7-1.47c.5.45,1.15.82,1.94,1.11.79.28,1.6.43,2.43.43,1.1,0,1.92-.19,2.46-.56.54-.37.81-.87.81-1.48,0-.45-.15-.82-.44-1.11-.3-.28-.66-.5-1.1-.65s-1.05-.32-1.84-.51c-1-.24-1.8-.48-2.41-.72-.61-.24-1.13-.61-1.57-1.11-.44-.5-.65-1.17-.65-2.01,0-.71.19-1.34.56-1.91s.94-1.02,1.69-1.36c.76-.34,1.69-.51,2.82-.51.78,0,1.55.1,2.31.3s1.41.49,1.95.87l-.62,1.51c-.56-.35-1.15-.62-1.78-.8-.63-.18-1.25-.27-1.85-.27-1.07,0-1.88.2-2.41.59-.54.39-.8.9-.8,1.51,0,.45.15.82.45,1.11.3.28.68.5,1.12.66s1.06.32,1.83.5c1,.24,1.8.48,2.4.72.6.24,1.12.61,1.56,1.1.44.49.65,1.15.65,1.99,0,.69-.19,1.33-.57,1.9-.38.57-.95,1.03-1.72,1.36-.77.33-1.71.5-2.84.5-1,0-1.96-.15-2.88-.46Z"/><path class="cls-1" d="M504.86,177.63v13.24h-1.81v-1.87c-.9,1.35-2.33,2.02-4.31,2.02-1.58,0-2.81-.48-3.7-1.44-.89-.96-1.33-2.33-1.33-4.1v-7.85h1.89v7.79c0,1.27.31,2.24.94,2.91s1.49,1,2.59,1c1.19,0,2.12-.35,2.82-1.06.69-.71,1.04-1.75,1.04-3.14v-7.51h1.87Z"/><path class="cls-1" d="M509.8,190.55c-.93-.31-1.65-.71-2.18-1.2l.7-1.47c.5.45,1.15.82,1.94,1.11.79.28,1.6.43,2.43.43,1.1,0,1.92-.19,2.46-.56.54-.37.81-.87.81-1.48,0-.45-.15-.82-.44-1.11-.3-.28-.66-.5-1.1-.65s-1.05-.32-1.84-.51c-1-.24-1.8-.48-2.41-.72-.61-.24-1.13-.61-1.57-1.11-.44-.5-.65-1.17-.65-2.01,0-.71.19-1.34.56-1.91s.94-1.02,1.69-1.36c.76-.34,1.69-.51,2.82-.51.78,0,1.55.1,2.31.3s1.41.49,1.95.87l-.62,1.51c-.56-.35-1.15-.62-1.78-.8-.63-.18-1.25-.27-1.85-.27-1.07,0-1.88.2-2.41.59-.54.39-.8.9-.8,1.51,0,.45.15.82.45,1.11.3.28.68.5,1.12.66s1.06.32,1.83.5c1,.24,1.8.48,2.4.72.6.24,1.12.61,1.56,1.1.44.49.65,1.15.65,1.99,0,.69-.19,1.33-.57,1.9-.38.57-.95,1.03-1.72,1.36-.77.33-1.71.5-2.84.5-1,0-1.96-.15-2.88-.46Z"/></svg>