<?xml version="1.0" encoding="UTF-8"?><svg id="Camada_1" xmlns="http://www.w3.org/2000/svg" viewBox="0 0 605.69 306.3"><defs><style>.cls-1{fill:#071b8e;stroke-width:0px;}</style></defs><path class="cls-1" d="M159.77,152.99c0,3.6-2.93,6.52-6.52,6.52s-6.52-2.93-6.52-6.52v-65.1c-3.6.36-7.18,1.02-10.64,1.96v63.14c0,9.5,7.73,17.22,17.22,17.22s17.22-7.73,17.22-17.22v-63.14c-3.5-.95-7.12-1.62-10.76-1.97v65.11Z"/><path class="cls-1" d="M153.31,183.26c-16.69,0-30.27-13.58-30.27-30.27v-58.02c-3.82,2-7.46,4.38-10.82,7.1v50.86c0,22.62,18.4,41.02,41.02,41.02s41.02-18.4,41.02-41.02v-50.96c-3.33-2.68-6.92-5.03-10.7-7v58.02c0,16.69-13.58,30.27-30.27,30.27Z"/><path class="cls-1" d="M153.25,207c-29.81,0-54.07-24.26-54.07-54.07v-36.7c-7.4,10.86-11.3,23.53-11.3,36.76,0,1.88.09,3.82.26,5.77.19,2.18.49,4.38.9,6.52.41,2.14.92,4.27,1.54,6.35.63,2.13,1.38,4.25,2.23,6.3,1.93,4.68,4.42,9.14,7.38,13.25.88,1.21,1.78,2.39,2.69,3.49,11.38,13.74,28.07,22.33,45.81,23.57,1.56.11,3.12.16,4.62.16.96,0,1.94-.02,3.01-.07,18.07-.82,35.17-9.22,46.9-23.05,1-1.18,1.97-2.41,2.89-3.66,3.07-4.19,5.63-8.71,7.61-13.47.84-2.02,1.59-4.11,2.23-6.22.61-2.03,1.13-4.11,1.54-6.18.4-1.99.7-4.01.9-6,.23-2.24.35-4.52.35-6.78,0-13.3-3.94-26.03-11.42-36.94v36.88c0,1.01-.03,2.08-.09,3.16-1.66,28.55-25.36,50.91-53.97,50.91Z"/><path class="cls-1" d="M251.82,173.69c-3.16-3.23-4.92-7.74-4.92-12.73v-32h9.28v32.14c0,5.27,3.16,8.44,8.37,8.44s8.44-3.16,8.44-8.44v-32.14h9.28v32c0,4.99-1.76,9.49-4.92,12.73-3.23,3.16-7.74,4.92-12.8,4.92s-9.49-1.76-12.73-4.92Z"/><path class="cls-1" d="M324.29,132.76c3.16,3.16,4.92,7.67,4.92,12.66v32.35h-9.28v-32.56c0-5.2-3.16-8.37-8.44-8.37s-8.37,3.16-8.37,8.37v32.56h-9.28v-32.35c0-4.99,1.76-9.49,4.92-12.66s7.74-4.99,12.73-4.99,9.56,1.76,12.8,4.99Z"/><path class="cls-1" d="M376.5,177.76h-9.28v-13.64h-16.81v13.64h-9.28v-32.35c0-4.99,1.76-9.49,4.92-12.66s7.74-4.99,12.73-4.99,9.56,1.76,12.8,4.99c3.16,3.16,4.92,7.67,4.92,12.66v32.35ZM367.22,145.21c0-5.2-3.16-8.37-8.44-8.37s-8.37,3.16-8.37,8.37v9.99h16.81v-9.99Z"/><path class="cls-1" d="M439.84,173.69c-3.16-3.23-4.92-7.74-4.92-12.73v-32h9.28v32.14c0,5.27,3.16,8.44,8.37,8.44s8.44-3.16,8.44-8.44v-32.14h9.28v32c0,4.99-1.76,9.49-4.92,12.73-3.23,3.16-7.74,4.92-12.8,4.92s-9.49-1.76-12.73-4.92Z"/><path class="cls-1" d="M422.55,143.73h-8.56c0-4.22-3.24-7.38-8.69-7.38-4.54,0-8.76,1.9-8.76,5.63,0,3.38,3.05,4.57,9.92,6.12,10.7,2.32,17.45,5.2,17.45,15.19,0,9.42-7.26,15.33-18.61,15.33-8.82,0-18.42-5.27-18.42-17.02h8.56c0,5.77,5.32,8.51,9.86,8.51,4.93,0,10.05-1.9,10.05-6.54,0-3.09-2.33-4.99-10.64-6.75-8.3-1.76-16.73-4.43-16.73-14.91,0-8.37,6.81-14.21,17.32-14.21,11.87,0,17.25,8.3,17.25,16.03Z"/><path class="cls-1" d="M516.36,143.73h-8.56c0-4.22-3.24-7.38-8.69-7.38-4.54,0-8.76,1.9-8.76,5.63,0,3.38,3.05,4.57,9.92,6.12,10.7,2.32,17.45,5.2,17.45,15.19,0,9.42-7.26,15.33-18.61,15.33-8.82,0-18.42-5.27-18.42-17.02h8.56c0,5.77,5.32,8.51,9.86,8.51,4.93,0,10.05-1.9,10.05-6.54,0-3.09-2.33-4.99-10.64-6.75-8.3-1.76-16.73-4.43-16.73-14.91,0-8.37,6.81-14.21,17.32-14.21,11.87,0,17.25,8.3,17.25,16.03Z"/></svg>