<?xml version="1.0" encoding="UTF-8"?><svg id="Camada_1" xmlns="http://www.w3.org/2000/svg" viewBox="0 0 705.74 306.3"><defs><style>.cls-1{fill:#071b8e;stroke-width:0px;}</style></defs><path class="cls-1" d="M159.77,152.99c0,3.6-2.93,6.52-6.52,6.52s-6.52-2.93-6.52-6.52v-65.1c-3.6.36-7.18,1.02-10.64,1.96v63.14c0,9.5,7.73,17.22,17.22,17.22s17.22-7.73,17.22-17.22v-63.14c-3.5-.95-7.12-1.62-10.76-1.97v65.11Z"/><path class="cls-1" d="M153.31,183.26c-16.69,0-30.27-13.58-30.27-30.27v-58.02c-3.82,2-7.46,4.38-10.82,7.1v50.86c0,22.62,18.4,41.02,41.02,41.02s41.02-18.4,41.02-41.02v-50.96c-3.33-2.68-6.92-5.03-10.7-7v58.02c0,16.69-13.58,30.27-30.27,30.27Z"/><path class="cls-1" d="M153.25,207c-29.81,0-54.07-24.26-54.07-54.07v-36.7c-7.4,10.86-11.3,23.53-11.3,36.76,0,1.88.09,3.82.26,5.77.19,2.18.49,4.38.9,6.52.41,2.14.92,4.27,1.54,6.35.63,2.13,1.38,4.25,2.23,6.3,1.93,4.68,4.42,9.14,7.38,13.25.88,1.21,1.78,2.39,2.69,3.49,11.38,13.74,28.07,22.33,45.81,23.57,1.56.11,3.12.16,4.62.16.96,0,1.94-.02,3.01-.07,18.07-.82,35.17-9.22,46.9-23.05,1-1.18,1.97-2.41,2.89-3.66,3.07-4.19,5.63-8.71,7.61-13.47.84-2.02,1.59-4.11,2.23-6.22.61-2.03,1.13-4.11,1.54-6.18.4-1.99.7-4.01.9-6,.23-2.24.35-4.52.35-6.78,0-13.3-3.94-26.03-11.42-36.94v36.88c0,1.01-.03,2.08-.09,3.16-1.66,28.55-25.36,50.91-53.97,50.91Z"/><path class="cls-1" d="M251.6,139.59c-3.16-3.23-4.92-7.74-4.92-12.73v-32h9.28v32.14c0,5.27,3.16,8.44,8.37,8.44s8.44-3.16,8.44-8.44v-32.14h9.28v32c0,4.99-1.76,9.49-4.92,12.73-3.23,3.16-7.74,4.92-12.8,4.92s-9.49-1.76-12.73-4.92Z"/><path class="cls-1" d="M324.07,98.66c3.16,3.16,4.92,7.67,4.92,12.66v32.35h-9.28v-32.56c0-5.2-3.16-8.37-8.44-8.37s-8.37,3.16-8.37,8.37v32.56h-9.28v-32.35c0-4.99,1.76-9.49,4.92-12.66,3.23-3.23,7.74-4.99,12.73-4.99s9.56,1.76,12.8,4.99Z"/><path class="cls-1" d="M376.29,143.67h-9.28v-13.64h-16.81v13.64h-9.28v-32.35c0-4.99,1.76-9.49,4.92-12.66s7.74-4.99,12.73-4.99,9.56,1.76,12.8,4.99c3.16,3.16,4.92,7.67,4.92,12.66v32.35ZM367,111.11c0-5.2-3.16-8.37-8.44-8.37s-8.37,3.16-8.37,8.37v9.99h16.81v-9.99Z"/><path class="cls-1" d="M298.86,207.71c-3.16-3.23-4.92-7.74-4.92-12.73v-32h9.28v32.14c0,5.27,3.16,8.44,8.37,8.44s8.44-3.16,8.44-8.44v-32.14h9.28v32c0,4.99-1.76,9.49-4.92,12.73-3.23,3.16-7.74,4.92-12.8,4.92s-9.49-1.76-12.73-4.92Z"/><path class="cls-1" d="M281.56,177.76h-8.56c0-4.22-3.24-7.38-8.69-7.38-4.54,0-8.76,1.9-8.76,5.63,0,3.38,3.05,4.57,9.92,6.12,10.7,2.32,17.45,5.2,17.45,15.19,0,9.42-7.26,15.33-18.61,15.33-8.82,0-18.42-5.27-18.42-17.02h8.56c0,5.77,5.32,8.51,9.86,8.51,4.93,0,10.05-1.9,10.05-6.54,0-3.09-2.33-4.99-10.64-6.75-8.3-1.76-16.73-4.43-16.73-14.91,0-8.37,6.81-14.21,17.32-14.21,11.87,0,17.25,8.3,17.25,16.03Z"/><path class="cls-1" d="M375.37,177.76h-8.56c0-4.22-3.24-7.38-8.69-7.38-4.54,0-8.76,1.9-8.76,5.63,0,3.38,3.05,4.57,9.92,6.12,10.7,2.32,17.45,5.2,17.45,15.19,0,9.42-7.26,15.33-18.61,15.33-8.82,0-18.42-5.27-18.42-17.02h8.56c0,5.77,5.32,8.51,9.86,8.51,4.93,0,10.05-1.9,10.05-6.54,0-3.09-2.33-4.99-10.64-6.75-8.3-1.76-16.73-4.43-16.73-14.91,0-8.37,6.81-14.21,17.32-14.21,11.87,0,17.25,8.3,17.25,16.03Z"/><path class="cls-1" d="M424.53,97.42v22.47h-3.08v-3.18c-1.52,2.29-3.96,3.43-7.32,3.43-2.67,0-4.77-.81-6.28-2.44-1.51-1.63-2.26-3.95-2.26-6.97v-13.32h3.21v13.22c0,2.16.54,3.81,1.61,4.94,1.07,1.13,2.54,1.7,4.4,1.7,2.01,0,3.61-.6,4.78-1.8,1.18-1.2,1.77-2.97,1.77-5.33v-12.74h3.18Z"/><path class="cls-1" d="M445.06,104.6c1.27,1.25,1.91,3.09,1.91,5.51v9.79h-3.08v-9.44c0-1.65-.4-2.89-1.19-3.72-.79-.83-1.93-1.25-3.4-1.25-1.67,0-2.98.49-3.95,1.46-.96.97-1.44,2.37-1.44,4.19v8.76h-3.08v-17.01h2.95v2.57c.62-.88,1.46-1.55,2.52-2.02s2.26-.71,3.61-.71c2.16,0,3.88.63,5.15,1.88Z"/><path class="cls-1" d="M452.73,99.03c-.4-.39-.59-.86-.59-1.41s.2-1.03.59-1.43c.4-.4.89-.59,1.49-.59s1.1.19,1.49.56c.4.37.59.84.59,1.4s-.2,1.06-.59,1.46c-.4.4-.89.59-1.49.59s-1.1-.19-1.49-.58ZM452.68,102.88h3.08v17.01h-3.08v-17.01Z"/><path class="cls-1" d="M476.69,102.88l-7.45,17.01h-3.15l-7.45-17.01h3.21l5.84,13.64,5.97-13.64h3.02Z"/><path class="cls-1" d="M491.68,115.33l1.67,1.99c-.75.9-1.7,1.58-2.84,2.05-1.14.47-2.42.71-3.83.71-1.8,0-3.39-.37-4.78-1.11-1.39-.74-2.47-1.77-3.23-3.1-.76-1.33-1.14-2.82-1.14-4.49s.37-3.13,1.11-4.46c.74-1.33,1.75-2.36,3.05-3.1,1.29-.74,2.75-1.11,4.38-1.11,1.54,0,2.94.35,4.21,1.04,1.26.7,2.27,1.67,3.02,2.94.75,1.26,1.13,2.72,1.16,4.37l-13.51,2.63c.43,1.18,1.15,2.09,2.17,2.73,1.02.64,2.24.96,3.68.96,2.03,0,3.67-.68,4.91-2.05ZM483.19,106.06c-.85.49-1.5,1.18-1.97,2.07-.47.89-.71,1.92-.71,3.1v.32l10.88-2.05c-.28-1.24-.9-2.25-1.86-3.02s-2.12-1.16-3.47-1.16c-1.07,0-2.03.25-2.87.74Z"/><path class="cls-1" d="M504.07,103.49c1.05-.51,2.32-.77,3.82-.77v2.98c-.17-.02-.41-.03-.71-.03-1.67,0-2.98.5-3.93,1.49-.95.99-1.43,2.41-1.43,4.25v8.47h-3.08v-17.01h2.95v2.86c.53-.98,1.33-1.73,2.38-2.25Z"/><path class="cls-1" d="M512.67,119.52c-1.28-.37-2.29-.85-3.02-1.43l1.28-2.44c.75.54,1.66.96,2.73,1.28s2.15.48,3.24.48c2.7,0,4.04-.77,4.04-2.31,0-.51-.18-.92-.55-1.22-.36-.3-.82-.52-1.36-.66-.55-.14-1.32-.29-2.33-.47-1.37-.21-2.49-.46-3.35-.74-.87-.28-1.61-.75-2.23-1.41-.62-.66-.93-1.59-.93-2.79,0-1.54.64-2.78,1.93-3.71,1.28-.93,3.01-1.4,5.17-1.4,1.13,0,2.27.14,3.4.42,1.13.28,2.07.65,2.79,1.12l-1.32,2.44c-1.39-.9-3.03-1.35-4.91-1.35-1.31,0-2.3.21-2.99.64-.68.43-1.03,1-1.03,1.7,0,.56.19,1,.58,1.32.39.32.86.56,1.43.71.57.15,1.36.32,2.39.51,1.37.24,2.48.49,3.32.75.84.27,1.57.72,2.17,1.36.6.64.9,1.54.9,2.7,0,1.54-.66,2.77-1.97,3.68-1.32.91-3.11,1.36-5.38,1.36-1.39,0-2.73-.19-4.01-.56Z"/><path class="cls-1" d="M527.94,99.03c-.4-.39-.59-.86-.59-1.41s.2-1.03.59-1.43.89-.59,1.49-.59,1.1.19,1.49.56c.39.37.59.84.59,1.4s-.2,1.06-.59,1.46c-.4.4-.89.59-1.49.59s-1.1-.19-1.49-.58ZM527.89,102.88h3.08v17.01h-3.08v-17.01Z"/><path class="cls-1" d="M552.89,96.07v23.82h-2.95v-2.7c-.69.94-1.55,1.66-2.6,2.15-1.05.49-2.21.74-3.47.74-1.65,0-3.12-.36-4.43-1.09-1.31-.73-2.33-1.75-3.07-3.07-.74-1.32-1.11-2.83-1.11-4.54s.37-3.22,1.11-4.53c.74-1.31,1.76-2.32,3.07-3.05,1.3-.73,2.78-1.09,4.43-1.09,1.22,0,2.34.23,3.37.69,1.03.46,1.88,1.14,2.57,2.04v-9.37h3.08ZM547.05,116.63c.88-.5,1.56-1.21,2.05-2.12.49-.91.74-1.95.74-3.13s-.25-2.22-.74-3.13c-.49-.91-1.18-1.61-2.05-2.1-.88-.49-1.85-.74-2.92-.74s-2.07.25-2.94.74-1.55,1.19-2.05,2.1c-.5.91-.75,1.95-.75,3.13s.25,2.22.75,3.13c.5.91,1.19,1.62,2.05,2.12s1.85.75,2.94.75,2.04-.25,2.92-.75Z"/><path class="cls-1" d="M574.78,102.88v17.01h-2.95v-2.7c-.68.94-1.55,1.66-2.6,2.15-1.05.49-2.2.74-3.47.74-1.65,0-3.12-.36-4.43-1.09-1.3-.73-2.33-1.75-3.06-3.07-.74-1.32-1.11-2.83-1.11-4.54s.37-3.22,1.11-4.53c.74-1.31,1.76-2.32,3.06-3.05,1.31-.73,2.78-1.09,4.43-1.09,1.22,0,2.34.23,3.37.69,1.03.46,1.88,1.14,2.57,2.04v-2.57h3.08ZM568.94,116.63c.88-.5,1.56-1.21,2.05-2.12s.74-1.95.74-3.13-.25-2.22-.74-3.13-1.18-1.61-2.05-2.1c-.88-.49-1.85-.74-2.92-.74s-2.07.25-2.94.74-1.55,1.19-2.05,2.1-.75,1.95-.75,3.13.25,2.22.75,3.13,1.19,1.62,2.05,2.12,1.85.75,2.94.75,2.04-.25,2.92-.75Z"/><path class="cls-1" d="M596.68,96.07v23.82h-2.95v-2.7c-.69.94-1.55,1.66-2.6,2.15-1.05.49-2.2.74-3.47.74-1.65,0-3.12-.36-4.43-1.09-1.31-.73-2.33-1.75-3.07-3.07-.74-1.32-1.11-2.83-1.11-4.54s.37-3.22,1.11-4.53c.74-1.31,1.76-2.32,3.07-3.05s2.78-1.09,4.43-1.09c1.22,0,2.34.23,3.37.69,1.03.46,1.88,1.14,2.57,2.04v-9.37h3.08ZM590.83,116.63c.88-.5,1.56-1.21,2.05-2.12.49-.91.74-1.95.74-3.13s-.25-2.22-.74-3.13c-.49-.91-1.18-1.61-2.05-2.1s-1.85-.74-2.92-.74-2.07.25-2.94.74c-.87.49-1.55,1.19-2.05,2.1s-.75,1.95-.75,3.13.25,2.22.75,3.13,1.19,1.62,2.05,2.12c.87.5,1.85.75,2.94.75s2.04-.25,2.92-.75Z"/><path class="cls-1" d="M615.1,115.33l1.67,1.99c-.75.9-1.7,1.58-2.84,2.05-1.14.47-2.42.71-3.84.71-1.8,0-3.39-.37-4.78-1.11-1.39-.74-2.47-1.77-3.23-3.1-.76-1.33-1.14-2.82-1.14-4.49s.37-3.13,1.11-4.46c.74-1.33,1.75-2.36,3.05-3.1,1.29-.74,2.75-1.11,4.38-1.11,1.54,0,2.94.35,4.21,1.04,1.26.7,2.27,1.67,3.02,2.94.75,1.26,1.13,2.72,1.15,4.37l-13.51,2.63c.43,1.18,1.15,2.09,2.17,2.73,1.02.64,2.24.96,3.67.96,2.03,0,3.67-.68,4.91-2.05ZM606.61,106.06c-.85.49-1.5,1.18-1.97,2.07-.47.89-.71,1.92-.71,3.1v.32l10.88-2.05c-.28-1.24-.9-2.25-1.86-3.02s-2.12-1.16-3.47-1.16c-1.07,0-2.03.25-2.87.74Z"/><path class="cls-1" d="M422.31,145.35c1.73,1.74,2.6,4.24,2.6,7.5v12.61h-3.21v-6.2h-12.97v6.2h-3.15v-12.61c0-3.25.87-5.75,2.6-7.5s4.08-2.62,7.03-2.62,5.36.87,7.09,2.62ZM421.71,156.47v-3.92c0-2.29-.57-4.02-1.72-5.2-1.15-1.18-2.73-1.77-4.77-1.77s-3.62.59-4.77,1.77c-1.15,1.18-1.72,2.91-1.72,5.2v3.92h12.97Z"/><path class="cls-1" d="M444.46,149.38c1.3.73,2.33,1.74,3.07,3.05.74,1.31,1.11,2.81,1.11,4.53s-.37,3.23-1.11,4.54c-.74,1.32-1.76,2.34-3.07,3.07-1.31.73-2.78,1.09-4.43,1.09-1.26,0-2.42-.25-3.47-.74-1.05-.49-1.92-1.21-2.6-2.15v2.7h-2.95v-23.82h3.08v9.37c.68-.9,1.54-1.58,2.57-2.04,1.03-.46,2.15-.69,3.37-.69,1.65,0,3.12.36,4.43,1.09ZM442.71,162.2c.87-.5,1.55-1.21,2.05-2.12s.75-1.95.75-3.13-.25-2.22-.75-3.13-1.19-1.61-2.05-2.1c-.87-.49-1.85-.74-2.94-.74s-2.04.25-2.92.74c-.88.49-1.56,1.19-2.05,2.1s-.74,1.95-.74,3.13.25,2.22.74,3.13,1.18,1.62,2.05,2.12c.88.5,1.85.75,2.92.75s2.07-.25,2.94-.75Z"/><path class="cls-1" d="M465.49,160.9l1.67,1.99c-.75.9-1.7,1.58-2.84,2.05-1.15.47-2.42.71-3.84.71-1.8,0-3.39-.37-4.78-1.11s-2.47-1.77-3.23-3.1c-.76-1.33-1.14-2.82-1.14-4.49s.37-3.13,1.11-4.46c.74-1.33,1.75-2.36,3.05-3.1s2.76-1.11,4.38-1.11c1.54,0,2.94.35,4.2,1.04,1.26.7,2.27,1.67,3.02,2.94.75,1.26,1.13,2.72,1.16,4.37l-13.51,2.63c.43,1.18,1.15,2.09,2.17,2.73s2.24.96,3.67.96c2.03,0,3.67-.68,4.91-2.05ZM457,151.62c-.85.49-1.5,1.18-1.97,2.07-.47.89-.71,1.92-.71,3.1v.32l10.88-2.05c-.28-1.24-.9-2.25-1.86-3.02-.96-.77-2.12-1.16-3.47-1.16-1.07,0-2.03.25-2.87.74Z"/><path class="cls-1" d="M477.88,149.06c1.05-.51,2.32-.77,3.82-.77v2.98c-.17-.02-.41-.03-.71-.03-1.67,0-2.98.5-3.93,1.49-.95.99-1.43,2.41-1.43,4.25v8.47h-3.08v-17.01h2.95v2.86c.54-.98,1.33-1.73,2.38-2.25Z"/><path class="cls-1" d="M494.44,164.46c-.45.39-1.01.68-1.67.88-.66.2-1.35.3-2.05.3-1.71,0-3.04-.46-3.98-1.38-.94-.92-1.41-2.24-1.41-3.95v-15.6h3.08v3.72h4.88v2.54h-4.88v9.21c0,.92.23,1.63.69,2.12s1.12.74,1.97.74c.94,0,1.74-.27,2.41-.8l.96,2.21Z"/><path class="cls-1" d="M513.64,148.45v17.01h-2.95v-2.7c-.69.94-1.55,1.66-2.6,2.15-1.05.49-2.2.74-3.47.74-1.65,0-3.12-.36-4.43-1.09-1.31-.73-2.33-1.75-3.07-3.07-.74-1.32-1.11-2.83-1.11-4.54s.37-3.22,1.11-4.53c.74-1.31,1.76-2.32,3.07-3.05s2.78-1.09,4.43-1.09c1.22,0,2.34.23,3.37.69,1.03.46,1.88,1.14,2.57,2.04v-2.57h3.08ZM507.79,162.2c.88-.5,1.56-1.21,2.05-2.12.49-.91.74-1.95.74-3.13s-.25-2.22-.74-3.13c-.49-.91-1.18-1.61-2.05-2.1s-1.85-.74-2.92-.74-2.07.25-2.94.74c-.87.49-1.55,1.19-2.05,2.1s-.75,1.95-.75,3.13.25,2.22.75,3.13,1.19,1.62,2.05,2.12c.87.5,1.85.75,2.94.75s2.04-.25,2.92-.75Z"/><path class="cls-1" d="M421.39,187.21v23.82h-2.95v-2.7c-.69.94-1.55,1.66-2.6,2.15-1.05.49-2.2.74-3.47.74-1.65,0-3.12-.36-4.43-1.09-1.31-.73-2.33-1.75-3.07-3.07-.74-1.32-1.11-2.83-1.11-4.54s.37-3.22,1.11-4.53c.74-1.31,1.76-2.32,3.07-3.05s2.78-1.09,4.43-1.09c1.22,0,2.34.23,3.37.69,1.03.46,1.88,1.14,2.57,2.04v-9.37h3.08ZM415.54,207.77c.88-.5,1.56-1.21,2.05-2.12.49-.91.74-1.95.74-3.13s-.25-2.22-.74-3.13c-.49-.91-1.18-1.61-2.05-2.1s-1.85-.74-2.92-.74-2.07.25-2.94.74c-.87.49-1.55,1.19-2.05,2.1s-.75,1.95-.75,3.13.25,2.22.75,3.13,1.19,1.62,2.05,2.12c.87.5,1.85.75,2.94.75s2.04-.25,2.92-.75Z"/><path class="cls-1" d="M429.95,210.1c-1.35-.75-2.4-1.78-3.16-3.1-.76-1.32-1.14-2.81-1.14-4.48s.38-3.16,1.14-4.48c.76-1.32,1.81-2.34,3.16-3.08s2.87-1.11,4.56-1.11,3.21.37,4.54,1.11c1.34.74,2.38,1.77,3.14,3.08.76,1.32,1.14,2.81,1.14,4.48s-.38,3.16-1.14,4.48c-.76,1.32-1.81,2.35-3.14,3.1-1.34.75-2.85,1.12-4.54,1.12s-3.21-.37-4.56-1.12ZM437.45,207.77c.87-.5,1.55-1.21,2.04-2.12.49-.91.74-1.95.74-3.13s-.25-2.22-.74-3.13c-.49-.91-1.17-1.61-2.04-2.1s-1.85-.74-2.94-.74-2.07.25-2.94.74-1.55,1.19-2.05,2.1c-.5.91-.75,1.95-.75,3.13s.25,2.22.75,3.13c.5.91,1.19,1.62,2.05,2.12s1.85.75,2.94.75,2.07-.25,2.94-.75Z"/><path class="cls-1" d="M458.35,210.5c-1.57-.52-2.81-1.2-3.71-2.04l1.19-2.5c.86.77,1.95,1.4,3.29,1.88,1.34.48,2.71.72,4.12.72,1.86,0,3.25-.32,4.17-.95.92-.63,1.38-1.47,1.38-2.52,0-.77-.25-1.4-.75-1.88-.5-.48-1.12-.85-1.86-1.11-.74-.26-1.78-.55-3.13-.87-1.69-.41-3.06-.81-4.09-1.22-1.04-.41-1.93-1.03-2.66-1.88-.74-.85-1.11-1.98-1.11-3.42,0-1.2.32-2.28.95-3.24s1.59-1.73,2.87-2.31c1.28-.58,2.88-.87,4.78-.87,1.33,0,2.63.17,3.92.51,1.28.34,2.38.83,3.31,1.48l-1.06,2.57c-.94-.6-1.95-1.05-3.02-1.36-1.07-.31-2.12-.47-3.14-.47-1.82,0-3.18.33-4.09,1-.91.66-1.36,1.52-1.36,2.57,0,.77.26,1.4.77,1.88s1.15.86,1.91,1.12c.76.27,1.79.55,3.1.85,1.69.41,3.05.81,4.08,1.22,1.03.41,1.91,1.03,2.65,1.86s1.11,1.96,1.11,3.37c0,1.18-.32,2.25-.96,3.23-.64.97-1.62,1.74-2.92,2.31-1.31.57-2.91.85-4.82.85-1.69,0-3.32-.26-4.89-.79Z"/><path class="cls-1" d="M495.37,188.56v22.47h-3.08v-3.18c-1.52,2.29-3.96,3.43-7.32,3.43-2.67,0-4.77-.81-6.28-2.44-1.51-1.63-2.26-3.95-2.26-6.97v-13.32h3.21v13.22c0,2.16.54,3.81,1.61,4.94,1.07,1.13,2.54,1.7,4.4,1.7,2.01,0,3.61-.6,4.78-1.8,1.18-1.2,1.77-2.97,1.77-5.33v-12.74h3.18Z"/><path class="cls-1" d="M503.77,210.5c-1.57-.52-2.81-1.2-3.71-2.04l1.19-2.5c.86.77,1.95,1.4,3.29,1.88s2.71.72,4.12.72c1.86,0,3.25-.32,4.17-.95.92-.63,1.38-1.47,1.38-2.52,0-.77-.25-1.4-.75-1.88-.5-.48-1.12-.85-1.86-1.11-.74-.26-1.78-.55-3.13-.87-1.69-.41-3.06-.81-4.09-1.22-1.04-.41-1.93-1.03-2.66-1.88-.74-.85-1.11-1.98-1.11-3.42,0-1.2.32-2.28.95-3.24.63-.96,1.59-1.73,2.87-2.31,1.28-.58,2.88-.87,4.78-.87,1.33,0,2.63.17,3.92.51s2.39.83,3.31,1.48l-1.06,2.57c-.94-.6-1.95-1.05-3.02-1.36-1.07-.31-2.12-.47-3.15-.47-1.82,0-3.18.33-4.09,1-.91.66-1.36,1.52-1.36,2.57,0,.77.26,1.4.77,1.88s1.15.86,1.91,1.12c.76.27,1.79.55,3.1.85,1.69.41,3.05.81,4.08,1.22,1.03.41,1.91,1.03,2.65,1.86s1.11,1.96,1.11,3.37c0,1.18-.32,2.25-.96,3.23-.64.97-1.62,1.74-2.92,2.31-1.3.57-2.91.85-4.81.85-1.69,0-3.32-.26-4.89-.79Z"/></svg>